<svg width="18" height="18" viewBox="0 0 18 18" fill="none" xmlns="http://www.w3.org/2000/svg">
<path fill-rule="evenodd" clip-rule="evenodd" d="M15.2761 0.907965H2.72389C1.72098 0.907965 0.907965 1.72098 0.907965 2.72389V15.2761C0.907965 16.279 1.72098 17.092 2.72389 17.092H15.2761C16.279 17.092 17.092 16.279 17.092 15.2761V2.72389C17.092 1.72098 16.279 0.907965 15.2761 0.907965ZM2.72389 0H15.2761C16.7805 0 18 1.21953 18 2.72389V15.2761C18 16.7805 16.7805 18 15.2761 18H2.72389C1.21953 18 0 16.7805 0 15.2761V2.72389C0 1.21953 1.21953 0 2.72389 0Z" fill="white"/>
<path fill-rule="evenodd" clip-rule="evenodd" d="M9.026 4.34375C6.22591 4.34375 3.96777 6.15024 3.96777 8.34334C3.96777 9.76687 4.90716 11.0134 6.31623 11.7251L5.83932 13.5064C5.83032 13.5331 5.82894 13.5617 5.83532 13.5891C5.8417 13.6166 5.8556 13.6417 5.87545 13.6617C5.90439 13.6872 5.94163 13.7013 5.98022 13.7014C6.01222 13.6989 6.04258 13.6862 6.06694 13.6653L8.11913 12.2815C8.42206 12.3234 8.72742 12.3451 9.03322 12.3465C11.8297 12.3465 14.0914 10.5401 14.0914 8.34334C14.0914 6.14663 11.8225 4.34375 9.026 4.34375ZM5.73792 7.71105H5.18513C5.11662 7.71304 5.04895 7.69549 4.99003 7.66046C4.96387 7.64407 4.94138 7.62244 4.92397 7.59695C4.90656 7.57146 4.89461 7.54265 4.88887 7.51232C4.88711 7.49309 4.88711 7.47377 4.88887 7.45454C4.88715 7.41856 4.89413 7.38268 4.90923 7.34997C4.92432 7.31726 4.94708 7.28869 4.97558 7.26666C5.03857 7.22104 5.11459 7.19694 5.19236 7.19799H6.85796C6.92702 7.19556 6.99515 7.21449 7.05306 7.25219C7.07984 7.26785 7.1028 7.28929 7.1203 7.31491C7.13779 7.34052 7.14938 7.3697 7.15423 7.40034C7.15599 7.41836 7.15599 7.43652 7.15423 7.45454C7.15593 7.49104 7.14896 7.52741 7.13389 7.5607C7.11882 7.59398 7.09607 7.6232 7.06751 7.646C7.00606 7.69156 6.93077 7.71455 6.85434 7.71105H6.31962V9.6115C6.32179 9.65199 6.31553 9.69247 6.30122 9.73041C6.28692 9.76834 6.26488 9.80291 6.23652 9.83189C6.20932 9.8596 6.17663 9.88131 6.14054 9.89562C6.10445 9.90993 6.06576 9.91652 6.02696 9.91498C5.95911 9.91692 5.89269 9.89523 5.83909 9.85359C5.78805 9.81291 5.75341 9.75515 5.74154 9.69098C5.73797 9.6646 5.73797 9.63788 5.74154 9.6115L5.73792 7.71105ZM7.41855 7.19438C7.36699 7.22797 7.32967 7.27945 7.31377 7.33891L6.54781 9.41639C6.54375 9.42756 6.53884 9.43902 6.53386 9.4506C6.52114 9.48023 6.50807 9.51069 6.50807 9.53927C6.50187 9.57513 6.50187 9.61177 6.50807 9.64763C6.50615 9.66806 6.50615 9.68864 6.50807 9.70907C6.51866 9.76898 6.55078 9.82292 6.5984 9.86079C6.64727 9.89748 6.70711 9.91659 6.76821 9.91499C6.82461 9.92208 6.88173 9.90939 6.92982 9.87909C6.97791 9.84878 7.01401 9.80274 7.03196 9.7488L7.18371 9.30441H8.13393L8.28567 9.7488C8.30407 9.8017 8.33974 9.84687 8.38693 9.87702C8.43412 9.90717 8.49009 9.92053 8.54581 9.91499C8.58205 9.91586 8.61808 9.90926 8.65165 9.89558C8.68521 9.88191 8.7156 9.86146 8.74092 9.83551C8.76704 9.81187 8.78769 9.7828 8.80142 9.75035C8.81514 9.7179 8.82162 9.68284 8.8204 9.64763C8.82164 9.62476 8.82164 9.60187 8.8204 9.579C8.80785 9.52396 8.79217 9.46965 8.77343 9.41639L8.05083 7.37503C8.03356 7.30269 7.9897 7.23949 7.92799 7.19799C7.86975 7.16489 7.80345 7.14862 7.7365 7.15102H7.5992C7.53611 7.14821 7.4735 7.16323 7.41855 7.19438ZM7.33184 8.89614L7.67508 7.81223L8.0147 8.89614H7.33184ZM8.90315 7.45458C8.89948 7.3735 8.92805 7.29427 8.98263 7.23419C9.01038 7.20621 9.04369 7.18434 9.0804 7.17002C9.11712 7.15571 9.15643 7.14923 9.1958 7.15106C9.26348 7.15027 9.32953 7.17188 9.38368 7.2125C9.43386 7.25488 9.46719 7.31383 9.47761 7.37868C9.48117 7.40385 9.48117 7.42942 9.47761 7.45458V9.35503H10.4712C10.5401 9.35413 10.6078 9.3729 10.6663 9.40919C10.6926 9.42541 10.7152 9.44701 10.7326 9.47253C10.7501 9.49805 10.7619 9.52694 10.7675 9.55734V9.61154C10.7692 9.64752 10.7622 9.68336 10.7471 9.71607C10.732 9.74878 10.7092 9.77739 10.6807 9.79943C10.6178 9.84505 10.5417 9.8691 10.464 9.86805H9.24277C9.16499 9.87306 9.08768 9.85281 9.02237 9.81028C8.96396 9.7666 8.92504 9.70172 8.91398 9.62963C8.91134 9.58993 8.91134 9.55007 8.91398 9.51037L8.90315 7.45458ZM10.9121 7.23421C10.8589 7.29507 10.8305 7.37375 10.8327 7.4546L10.811 9.59348C10.8074 9.61985 10.8074 9.64662 10.811 9.673C10.8229 9.73717 10.8575 9.79489 10.9085 9.83557C10.961 9.87668 11.0261 9.8984 11.0928 9.897C11.1327 9.89867 11.1725 9.89215 11.2098 9.87786C11.2471 9.86357 11.281 9.84177 11.3096 9.81387C11.3628 9.75301 11.3912 9.67433 11.3891 9.59348V8.99013L11.7106 8.6541L12.3826 9.73801C12.4105 9.78882 12.4501 9.83218 12.4983 9.86446C12.5427 9.88782 12.5926 9.89907 12.6428 9.897C12.7183 9.89807 12.7921 9.87389 12.8523 9.82833C12.8844 9.80108 12.9093 9.76648 12.9251 9.72747C12.9408 9.68845 12.9468 9.64619 12.9427 9.60433V9.58629C12.9227 9.52554 12.8935 9.46822 12.8559 9.41644V9.38032L12.1333 8.2603L12.7331 7.6027C12.7596 7.57285 12.7826 7.54016 12.8017 7.50519C12.8206 7.47216 12.8305 7.4348 12.8307 7.39678C12.8289 7.38844 12.8289 7.37985 12.8307 7.37151C12.8321 7.36436 12.8321 7.35696 12.8307 7.34981C12.8255 7.32064 12.8145 7.29283 12.7984 7.268C12.7823 7.24317 12.7613 7.22182 12.7367 7.20528C12.6846 7.16964 12.6228 7.15073 12.5597 7.15108C12.5165 7.15023 12.4739 7.16153 12.4368 7.18362C12.3975 7.21501 12.3601 7.24876 12.3248 7.28476L11.4107 8.33977V7.4546C11.4125 7.42934 11.4125 7.40396 11.4107 7.3787C11.3991 7.31345 11.3645 7.25452 11.3132 7.21251C11.2541 7.16943 11.1819 7.14805 11.1088 7.152C11.0358 7.15595 10.9663 7.18501 10.9121 7.23421Z" fill="white"/>
</svg>
