<svg width="95" height="34" viewBox="0 0 95 34" fill="none" xmlns="http://www.w3.org/2000/svg">
<path d="M93.0043 19.6037C94.1064 19.6037 94.9998 18.7102 94.9998 17.6081C94.9998 16.5061 94.1064 15.6127 93.0043 15.6127C91.9023 15.6127 91.0088 16.5061 91.0088 17.6081C91.0088 18.7102 91.9023 19.6037 93.0043 19.6037Z" fill="#394149"/>
<path d="M13.8733 0.629517H0V14.5028H13.8733V0.629517Z" fill="#722ED1"/>
<path d="M22.5441 14.5028C26.3751 14.5028 29.4807 11.3972 29.4807 7.56615C29.4807 3.73516 26.3751 0.629517 22.5441 0.629517C18.7131 0.629517 15.6074 3.73516 15.6074 7.56615C15.6074 11.3972 18.7131 14.5028 22.5441 14.5028Z" fill="#394149"/>
<path d="M38.1515 14.5028C41.9826 14.5028 45.0882 11.3972 45.0882 7.56615C45.0882 3.73516 41.9826 0.629517 38.1515 0.629517C34.3205 0.629517 31.2148 3.73516 31.2148 7.56615C31.2148 11.3972 34.3205 14.5028 38.1515 14.5028Z" fill="#394149"/>
<path d="M9.08653 22.4241H6.39545V31.7804C6.39545 32.3192 6.28194 32.7204 6.05492 32.984C5.82789 33.2417 5.53442 33.3705 5.1745 33.3705C4.80905 33.3705 4.51004 33.2387 4.27748 32.9752C4.05045 32.7116 3.93694 32.3134 3.93694 31.7804V22.4241H1.24587C0.825041 22.4241 0.51219 22.3275 0.307314 22.1342C0.102438 21.9351 0 21.6745 0 21.3523C0 21.0185 0.105207 20.7549 0.31562 20.5617C0.53157 20.3684 0.841653 20.2718 1.24587 20.2718H9.08653C9.51289 20.2718 9.82851 20.3713 10.0334 20.5705C10.2438 20.7696 10.349 21.0302 10.349 21.3523C10.349 21.6745 10.2438 21.9351 10.0334 22.1342C9.82297 22.3275 9.50735 22.4241 9.08653 22.4241Z" fill="#394149"/>
<path d="M18.6069 31.6925L18.0255 30.0761H13.0753L12.4939 31.7277C12.2669 32.3719 12.0731 32.8083 11.9125 33.0367C11.7519 33.2592 11.4889 33.3705 11.1234 33.3705C10.8134 33.3705 10.5393 33.2504 10.3012 33.0103C10.0631 32.7702 9.94402 32.4978 9.94402 32.1933C9.94402 32.0176 9.9717 31.836 10.0271 31.6486C10.0824 31.4612 10.1738 31.2006 10.3012 30.8667L13.4158 22.5032C13.5044 22.2631 13.6096 21.9761 13.7315 21.6422C13.8588 21.3026 13.9917 21.0214 14.1301 20.7989C14.2741 20.5763 14.4596 20.3977 14.6866 20.263C14.9192 20.1224 15.2043 20.0521 15.5421 20.0521C15.8854 20.0521 16.1706 20.1224 16.3976 20.263C16.6302 20.3977 16.8157 20.5734 16.9541 20.7901C17.0981 21.0068 17.2171 21.2411 17.3112 21.4929C17.4109 21.7389 17.5355 22.0698 17.685 22.4856L20.8661 30.7964C21.1153 31.429 21.2399 31.8887 21.2399 32.1757C21.2399 32.4744 21.1208 32.7497 20.8827 33.0015C20.6502 33.2475 20.3678 33.3705 20.0355 33.3705C19.8417 33.3705 19.6756 33.3324 19.5372 33.2563C19.3988 33.186 19.2825 33.0894 19.1884 32.9664C19.0942 32.8375 18.9918 32.6443 18.881 32.3866C18.7758 32.123 18.6845 31.8917 18.6069 31.6925ZM13.7231 28.117H17.3611L15.5255 22.8019L13.7231 28.117Z" fill="#394149"/>
<path d="M27.8699 28.1345H25.6107V31.7804C25.6107 32.3016 25.4944 32.697 25.2619 32.9664C25.0293 33.2358 24.7358 33.3705 24.3815 33.3705C24.0105 33.3705 23.7115 33.2387 23.4844 32.9752C23.2574 32.7058 23.1439 32.3134 23.1439 31.798V21.8707C23.1439 21.2967 23.2685 20.8867 23.5177 20.6407C23.7668 20.3947 24.1627 20.2718 24.7054 20.2718H27.8699C28.8057 20.2718 29.5255 20.3479 30.0294 20.5002C30.5277 20.6466 30.9569 20.8896 31.3168 21.2293C31.6822 21.569 31.9591 21.9849 32.1474 22.4768C32.3356 22.9688 32.4298 23.5223 32.4298 24.1373C32.4298 25.4492 32.0477 26.4448 31.2836 27.1242C30.5194 27.7978 29.3815 28.1345 27.8699 28.1345ZM27.2719 22.2309H25.6107V26.1666H27.2719C27.8533 26.1666 28.3378 26.1022 28.7254 25.9734C29.1185 25.8445 29.4175 25.6337 29.6224 25.3408C29.8273 25.048 29.9297 24.6644 29.9297 24.19C29.9297 23.6219 29.7719 23.1592 29.4563 22.8019C29.1019 22.4212 28.3738 22.2309 27.2719 22.2309Z" fill="#394149"/>
<path d="M43.8273 29.2854C43.8273 30.0643 43.6363 30.7642 43.2542 31.3851C42.8777 32.0059 42.3239 32.492 41.593 32.8434C40.8621 33.1948 39.9956 33.3705 38.9933 33.3705C37.7918 33.3705 36.8006 33.1304 36.0199 32.6501C35.4661 32.3046 35.0149 31.8448 34.666 31.2708C34.3227 30.691 34.1511 30.1288 34.1511 29.5841C34.1511 29.2678 34.2535 28.9984 34.4584 28.7758C34.6688 28.5474 34.9346 28.4332 35.2557 28.4332C35.516 28.4332 35.7347 28.5211 35.9119 28.6968C36.0946 28.8725 36.2496 29.1331 36.377 29.4787C36.532 29.8886 36.6982 30.2313 36.8754 30.5065C37.0581 30.7818 37.3128 31.0102 37.6395 31.1918C37.9662 31.3675 38.3953 31.4553 38.9269 31.4553C39.6578 31.4553 40.2503 31.2767 40.7043 30.9194C41.1639 30.5563 41.3937 30.1053 41.3937 29.5665C41.3937 29.139 41.2691 28.7934 41.0199 28.5299C40.7763 28.2604 40.4579 28.0555 40.0648 27.9149C39.6772 27.7743 39.1567 27.625 38.5033 27.4668C37.6284 27.2501 36.8947 26.9983 36.3023 26.7113C35.7153 26.4185 35.2474 26.0231 34.8986 25.5253C34.5553 25.0216 34.3836 24.3979 34.3836 23.6541C34.3836 22.9454 34.5663 22.3158 34.9318 21.7652C35.2973 21.2147 35.8261 20.793 36.5182 20.5002C37.2104 20.2015 38.0243 20.0521 38.9601 20.0521C39.7076 20.0521 40.3527 20.1517 40.8953 20.3508C41.4435 20.5441 41.8976 20.8047 42.2575 21.1327C42.6174 21.4548 42.8804 21.7945 43.0465 22.1518C43.2127 22.5091 43.2957 22.8575 43.2957 23.1972C43.2957 23.5076 43.1905 23.7888 42.9801 24.0406C42.7752 24.2866 42.5177 24.4096 42.2077 24.4096C41.9253 24.4096 41.7093 24.3364 41.5598 24.19C41.4158 24.0377 41.258 23.7917 41.0864 23.452C40.8649 22.9659 40.5991 22.5881 40.289 22.3187C39.9789 22.0434 39.4806 21.9058 38.794 21.9058C38.1572 21.9058 37.6423 22.0552 37.2491 22.3539C36.8615 22.6467 36.6677 23.001 36.6677 23.4169C36.6677 23.6746 36.7342 23.8971 36.867 24.0845C36.9999 24.272 37.1827 24.433 37.4152 24.5677C37.6478 24.7024 37.8831 24.8079 38.1212 24.884C38.3593 24.9601 38.7525 25.0714 39.3006 25.2178C39.9873 25.3877 40.6074 25.5751 41.1611 25.7801C41.7204 25.9851 42.1938 26.234 42.5814 26.5268C42.9746 26.8197 43.2791 27.1916 43.4951 27.6426C43.7165 28.0877 43.8273 28.6353 43.8273 29.2854Z" fill="#394149"/>
<path d="M50.7314 28.1345H48.4722V31.7804C48.4722 32.3016 48.3559 32.697 48.1234 32.9664C47.8908 33.2358 47.5973 33.3705 47.243 33.3705C46.872 33.3705 46.573 33.2387 46.3459 32.9752C46.1189 32.7058 46.0054 32.3134 46.0054 31.798V21.8707C46.0054 21.2967 46.13 20.8867 46.3792 20.6407C46.6283 20.3947 47.0242 20.2718 47.5669 20.2718H50.7314C51.6672 20.2718 52.387 20.3479 52.8909 20.5002C53.3892 20.6466 53.8184 20.8896 54.1783 21.2293C54.5437 21.569 54.8206 21.9849 55.0089 22.4768C55.1971 22.9688 55.2913 23.5223 55.2913 24.1373C55.2913 25.4492 54.9092 26.4448 54.1451 27.1242C53.3809 27.7978 52.243 28.1345 50.7314 28.1345ZM50.1334 22.2309H48.4722V26.1666H50.1334C50.7148 26.1666 51.1993 26.1022 51.5869 25.9734C51.98 25.8445 52.279 25.6337 52.4839 25.3408C52.6888 25.048 52.7912 24.6644 52.7912 24.19C52.7912 23.6219 52.6334 23.1592 52.3178 22.8019C51.9634 22.4212 51.2353 22.2309 50.1334 22.2309Z" fill="#394149"/>
<path d="M63.7319 31.6925L63.1505 30.0761H58.2003L57.6189 31.7277C57.3919 32.3719 57.1981 32.8083 57.0375 33.0367C56.8769 33.2592 56.6139 33.3705 56.2484 33.3705C55.9383 33.3705 55.6643 33.2504 55.4262 33.0103C55.1881 32.7702 55.069 32.4978 55.069 32.1933C55.069 32.0176 55.0967 31.836 55.1521 31.6486C55.2074 31.4612 55.2988 31.2006 55.4262 30.8667L58.5408 22.5032C58.6294 22.2631 58.7346 21.9761 58.8564 21.6422C58.9838 21.3026 59.1167 21.0214 59.2551 20.7989C59.3991 20.5763 59.5846 20.3977 59.8116 20.263C60.0442 20.1224 60.3293 20.0521 60.6671 20.0521C61.0104 20.0521 61.2956 20.1224 61.5226 20.263C61.7552 20.3977 61.9407 20.5734 62.0791 20.7901C62.2231 21.0068 62.3421 21.2411 62.4362 21.4929C62.5359 21.7389 62.6605 22.0698 62.81 22.4856L65.9911 30.7964C66.2403 31.429 66.3649 31.8887 66.3649 32.1757C66.3649 32.4744 66.2458 32.7497 66.0077 33.0015C65.7752 33.2475 65.4928 33.3705 65.1605 33.3705C64.9667 33.3705 64.8006 33.3324 64.6622 33.2563C64.5238 33.186 64.4075 33.0894 64.3133 32.9664C64.2192 32.8375 64.1168 32.6443 64.006 32.3866C63.9008 32.123 63.8095 31.8917 63.7319 31.6925ZM58.8481 28.117H62.4861L60.6505 22.8019L58.8481 28.117Z" fill="#394149"/>
<path d="M78.2109 29.0833C78.2109 29.4933 78.114 29.9384 77.9202 30.4187C77.7319 30.8931 77.4329 31.3616 77.0232 31.8243C76.6134 32.2811 76.0902 32.6531 75.4534 32.94C74.8166 33.227 74.0746 33.3705 73.2274 33.3705C72.5851 33.3705 72.0009 33.3061 71.4749 33.1772C70.9489 33.0484 70.4699 32.8493 70.038 32.5798C69.6117 32.3046 69.2185 31.9444 68.8586 31.4993C68.5374 31.0951 68.2633 30.6442 68.0363 30.1463C67.8093 29.6427 67.6376 29.1068 67.5214 28.5386C67.4106 27.9705 67.3553 27.3673 67.3553 26.7289C67.3553 25.6922 67.4964 24.7639 67.7788 23.944C68.0668 23.124 68.4765 22.4241 69.0081 21.8443C69.5397 21.2586 70.1626 20.8135 70.8769 20.509C71.5912 20.2044 72.3526 20.0521 73.161 20.0521C74.1466 20.0521 75.0243 20.26 75.7939 20.6759C76.5636 21.0917 77.1533 21.6071 77.5631 22.2221C77.9728 22.8312 78.1777 23.4081 78.1777 23.9528C78.1777 24.2515 78.078 24.515 77.8787 24.7434C77.6793 24.9718 77.4385 25.0861 77.1561 25.0861C76.8405 25.0861 76.6024 25.007 76.4418 24.8489C76.2867 24.6907 76.1123 24.4184 75.9185 24.0318C75.5974 23.3934 75.2181 22.9161 74.7806 22.5998C74.3487 22.2836 73.8144 22.1254 73.1776 22.1254C72.1643 22.1254 71.3559 22.5325 70.7523 23.3466C70.1543 24.1607 69.8553 25.3174 69.8553 26.8167C69.8553 27.8183 69.9882 28.6529 70.254 29.3205C70.5198 29.9823 70.8963 30.4772 71.3836 30.8052C71.8708 31.1332 72.4412 31.2972 73.0945 31.2972C73.8033 31.2972 74.4013 31.1127 74.8886 30.7437C75.3814 30.3689 75.7524 29.8213 76.0016 29.1009C76.1068 28.7612 76.2369 28.4859 76.3919 28.2751C76.547 28.0584 76.7962 27.95 77.1395 27.95C77.4329 27.95 77.6849 28.0584 77.8953 28.2751C78.1057 28.4918 78.2109 28.7612 78.2109 29.0833Z" fill="#394149"/>
<path d="M88.537 22.2836H82.9804V25.4462H88.0968C88.4733 25.4462 88.7529 25.537 88.9357 25.7186C89.1239 25.8943 89.2181 26.1286 89.2181 26.4214C89.2181 26.7142 89.1267 26.9544 88.944 27.1418C88.7612 27.3234 88.4788 27.4141 88.0968 27.4141H82.9804V31.0776H88.728C89.1156 31.0776 89.4063 31.1742 89.6001 31.3675C89.7995 31.5549 89.8991 31.8067 89.8991 32.123C89.8991 32.4276 89.7995 32.6765 89.6001 32.8698C89.4063 33.0572 89.1156 33.1509 88.728 33.1509H82.0253C81.4881 33.1509 81.1005 33.025 80.8624 32.7731C80.6299 32.5213 80.5136 32.1142 80.5136 31.552V21.8707C80.5136 21.4958 80.5662 21.1913 80.6714 20.957C80.7766 20.7169 80.94 20.5441 81.1615 20.4387C81.3885 20.3274 81.6764 20.2718 82.0253 20.2718H88.537C88.9301 20.2718 89.2208 20.3655 89.4091 20.5529C89.6029 20.7344 89.6998 20.9746 89.6998 21.2733C89.6998 21.5778 89.6029 21.8238 89.4091 22.0112C89.2208 22.1928 88.9301 22.2836 88.537 22.2836Z" fill="#394149"/>
</svg>
